<svg width="64" height="36" viewBox="0 0 64 36" fill="none" xmlns="http://www.w3.org/2000/svg">
<path fill-rule="evenodd" clip-rule="evenodd" d="M2.26501 5.483C2.62601 6.702 3.84901 7.149 4.99601 6.809C5.03222 6.84931 5.0549 6.91156 5.07615 6.96991L5.07616 6.96993C5.08601 6.99698 5.09556 7.0232 5.10601 7.046C5.00638 7.08432 4.82231 7.16364 4.60226 7.25846L4.60225 7.25847L4.60224 7.25847L4.60223 7.25847L4.60222 7.25847C3.9896 7.52246 3.09809 7.90662 2.97301 7.861C2.75609 7.42832 2.41476 7.10858 2.07132 6.78686C1.83214 6.5628 1.59194 6.33779 1.39201 6.073C0.826014 5.325 0.495014 4.422 0.584014 3.476C0.726014 1.731 2.48201 -0.193 4.34601 0.0710004C5.26601 0.204 6.03401 0.858 6.60601 1.554C6.76846 1.74331 6.90974 1.94182 7.04914 2.13769C7.34568 2.55436 7.63374 2.95911 8.09901 3.238C7.54101 3.95 6.98301 4.66 6.42301 5.371C6.09252 5.2249 6.193 4.997 6.30283 4.74787C6.33357 4.67813 6.36505 4.60673 6.38801 4.535C6.55101 4.018 6.67301 3.43 6.44901 2.91C5.93901 1.736 4.54401 1.696 3.60901 2.366C2.66301 3.044 1.91201 4.292 2.26501 5.483ZM10.69 7.404C10.8067 7.37879 10.8955 7.42072 10.9743 7.45797C11.0894 7.51231 11.1833 7.55667 11.312 7.368L9.72201 5.474C9.48101 5.187 9.17601 4.879 9.26301 5.486C9.32101 5.895 5.29401 9.163 5.04801 9.264C4.91318 9.31967 4.80256 9.27584 4.70184 9.23592C4.57099 9.18407 4.45685 9.13884 4.32801 9.327C4.52888 9.5655 4.72938 9.80418 4.9299 10.0429L4.93026 10.0433L4.93174 10.0451L4.93228 10.0457L4.9331 10.0467L4.93321 10.0468L4.93332 10.0469L4.93344 10.0471L4.93355 10.0472L4.93366 10.0473L4.93378 10.0475L4.93389 10.0476L4.93431 10.0481L4.93442 10.0483L4.93453 10.0484L4.93465 10.0485L4.93476 10.0487L4.93487 10.0488C5.20689 10.3726 5.47896 10.6965 5.75201 11.02C5.80353 11.0812 5.85391 11.1441 5.90442 11.2072C6.01077 11.3401 6.11769 11.4737 6.23701 11.593C6.42583 11.7818 6.38998 11.3246 6.38235 11.2273L6.38235 11.2273L6.38234 11.2272C6.38109 11.2112 6.3806 11.2049 6.38201 11.213C6.32864 10.9168 6.64084 10.6601 6.86039 10.4796L6.86045 10.4796C6.88769 10.4572 6.9135 10.436 6.93701 10.416C7.94101 9.532 10.442 7.437 10.69 7.404ZM14.113 11.935C14.446 12.336 14.691 12.769 14.636 13.309C14.6231 13.4367 14.5485 13.5942 14.4729 13.7539C14.3265 14.063 14.1762 14.3804 14.461 14.507L15.916 12.667C15.526 12.569 12.434 8.871 12.384 8.466L10.333 9.592C10.403 9.87508 10.7464 9.78588 11.0762 9.7002C11.2462 9.65604 11.4125 9.61282 11.536 9.622C12.074 9.66 12.462 9.985 12.804 10.369C12.6985 10.4576 12.5786 10.5584 12.4479 10.6684L12.4436 10.672L12.4431 10.6724L12.443 10.6725L12.4429 10.6725C11.1852 11.7305 8.92653 13.6306 8.66601 13.674C8.61806 13.6816 8.52546 13.6421 8.42242 13.5982C8.21172 13.5083 7.95739 13.3999 7.95201 13.637C7.94907 13.7623 8.25091 14.0609 8.45228 14.2601L8.45229 14.2601L8.45237 14.2602C8.52415 14.3312 8.58316 14.3896 8.61101 14.423L10.058 16.145C10.2779 16.0447 10.235 15.9115 10.1852 15.757C10.1441 15.6297 10.0984 15.4879 10.191 15.338C10.3101 15.145 12.2458 13.512 13.409 12.5306L13.409 12.5305L13.4091 12.5305L13.4097 12.53C13.7111 12.2757 13.9605 12.0653 14.113 11.935ZM27.9615 27.5156L27.9615 27.5156L27.9614 27.5154C27.7668 27.2637 27.6168 27.0697 27.539 26.977L27.326 26.724C27.319 26.714 27.141 26.869 27.166 26.848C27.1126 26.8928 27.1297 26.9795 27.1492 27.0783C27.1705 27.1867 27.1948 27.3097 27.132 27.408C26.617 28.214 23.394 30.644 23.227 30.76C23.0532 30.8807 22.871 30.8608 22.7053 30.8428C22.5278 30.8235 22.3692 30.8062 22.26 30.966C22.3991 31.131 22.6154 31.4017 22.8547 31.7012L22.8548 31.7012C23.419 32.4073 24.1112 33.2734 24.22 33.291C24.437 33.3259 24.3979 33.0542 24.3681 32.8463C24.3551 32.7561 24.3439 32.678 24.356 32.642C24.4312 32.4165 25.8751 31.2125 26.5418 30.6566L26.66 30.558C26.8457 30.4021 27.0394 30.7121 27.1731 30.9261L27.1731 30.9261C27.1963 30.9633 27.2178 30.9976 27.237 31.026C27.449 31.341 27.544 31.676 27.43 32.045C27.4077 32.1163 27.3576 32.198 27.3061 32.2819C27.1844 32.4802 27.0551 32.691 27.268 32.807C27.4389 32.6072 27.7415 32.2542 28.0455 31.8996L28.052 31.8919L28.0552 31.8882L28.06 31.8827C28.4663 31.4087 28.8714 30.9361 28.964 30.827C29.0849 30.6869 28.8281 30.7409 28.71 30.7657L28.71 30.7657L28.7099 30.7657C28.6679 30.7745 28.6435 30.7797 28.66 30.771C28.42 30.895 28.194 30.924 27.97 30.753C27.907 30.706 27.263 30.051 27.327 29.996C27.3925 29.941 27.4615 29.8775 27.5334 29.8114C27.7685 29.595 28.0345 29.3502 28.311 29.282C28.871 29.144 29.338 30.266 29.421 30.664C29.499 31.039 29.488 31.434 29.371 31.8C29.3509 31.8631 29.321 31.9229 29.2926 31.9797C29.208 32.1489 29.1374 32.2902 29.383 32.404L30.766 30.508C30.6757 30.5126 30.586 30.4907 30.508 30.445C29.9243 30.0551 28.6574 28.416 27.9615 27.5156ZM19.304 22.317C19.8592 21.8446 20.5533 21.5662 21.281 21.524C22.439 21.458 23.613 21.988 24.371 22.998C25.483 24.482 25.301 26.559 23.871 27.764C22.186 28.965 20.104 28.772 18.812 27.07C17.688 25.592 17.874 23.52 19.304 22.317ZM22.471 22.91C23.42 22.802 23.974 23.709 23.57 24.678C23.15 25.658 22.14 26.667 21.146 27.058C19.966 27.523 19.135 26.521 19.615 25.401C20.037 24.417 21.045 23.418 22.041 23.021C22.191 22.962 22.335 22.926 22.471 22.911V22.91ZM19.9743 18.3709C19.8816 18.3321 19.7855 18.292 19.688 18.28V18.279C18.9923 18.1958 18.2093 18.3412 17.4705 18.4784H17.4705L17.4705 18.4784C17.1877 18.5309 16.9114 18.5822 16.649 18.619C16.002 18.71 14.477 20.195 14.379 20.475C14.3685 20.5138 14.3897 20.6015 14.414 20.7024C14.4687 20.929 14.5395 21.2225 14.305 21.181C14.2258 21.1662 14.0359 20.9081 13.9094 20.7361L13.9093 20.736L13.9092 20.7359C13.8649 20.6756 13.8283 20.6259 13.807 20.601L12.19 18.681C12.3333 18.4781 12.4542 18.5471 12.5938 18.6268C12.7046 18.69 12.8271 18.76 12.982 18.706C13.2482 18.6126 14.1602 17.8353 14.5918 17.4675L14.5922 17.4671L14.5944 17.4652C14.6513 17.4168 14.6997 17.3755 14.737 17.344C15.2908 16.8782 15.7777 15.171 15.9369 14.6127C15.9623 14.5238 15.9793 14.464 15.987 14.443C16.048 14.273 16.069 13.298 16.045 13.318C16.2556 13.1443 16.4 13.3575 16.5464 13.5735C16.5905 13.6386 16.6347 13.7039 16.681 13.759L18.461 15.871C18.3288 16.0609 18.2068 16.0053 18.072 15.944C17.9428 15.8852 17.8018 15.821 17.629 15.963C17.4704 16.0939 17.0892 17.1921 16.9162 17.6903L16.877 17.803C16.9153 17.7962 16.9636 17.788 17.0199 17.7784L17.02 17.7784C17.5525 17.6876 18.7961 17.4755 18.939 17.225C19.0064 17.1066 18.967 17.0054 18.9317 16.9146C18.8853 16.7952 18.8458 16.6938 19.065 16.595L20.512 18.307C20.3596 18.5318 20.1746 18.4545 19.9743 18.3709ZM43.927 25.049C44.051 25.47 44.121 25.914 44.067 26.354C43.997 26.92 43.431 28.252 42.656 27.873C42.1216 27.6107 41.6342 27.1625 41.1677 26.7336C40.9707 26.5525 40.7775 26.3748 40.586 26.216C41.106 25.608 41.564 25.081 42.439 25.376C42.679 25.456 42.885 25.352 42.633 25.206C42.5831 25.1769 42.4791 25.1129 42.3429 25.0289C41.7618 24.6707 40.593 23.9503 40.516 24.037C40.4365 24.1288 40.5001 24.2537 40.5744 24.3995C40.6636 24.5745 40.7681 24.7796 40.659 24.994C40.5442 25.2189 40.3693 25.4198 40.199 25.6153C40.1498 25.6718 40.1009 25.7279 40.054 25.784C39.9858 25.7264 39.9108 25.6683 39.8343 25.609L39.8341 25.6089L39.834 25.6087C39.3872 25.2624 38.8884 24.8757 39.369 24.32C39.721 23.892 40.18 23.56 40.73 23.45C40.8595 23.4236 41.0457 23.447 41.2374 23.471C41.5907 23.5153 41.9627 23.562 42.032 23.304C41.609 23.1 41.186 22.8971 40.763 22.6942C40.481 22.5589 40.199 22.4236 39.917 22.288C40.0094 22.7056 38.5517 24.3469 37.711 25.2935C37.505 25.5255 37.336 25.7157 37.236 25.836C37.2166 25.859 37.1781 25.8971 37.1317 25.943C37.001 26.0721 36.808 26.263 36.805 26.353C36.7996 26.6048 37.1345 26.4514 37.2156 26.4142L37.2157 26.4142C37.2241 26.4104 37.2298 26.4078 37.232 26.407C37.547 26.291 41.656 29.724 41.758 29.959C41.7887 30.045 41.7582 30.1331 41.7306 30.2128C41.6998 30.3017 41.6726 30.3802 41.738 30.434C41.7377 30.4337 41.7378 30.4338 41.7384 30.4344L41.7409 30.4366C41.7623 30.4563 41.8878 30.5719 41.903 30.554C41.9454 30.5031 42.0561 30.3602 42.2135 30.1569L42.2135 30.1569L42.2136 30.1568C42.9956 29.1472 44.9317 26.6478 45.392 26.518C44.875 25.7304 44.3627 24.9397 43.855 24.146C43.5683 24.2718 43.7035 24.5544 43.8253 24.8089C43.8662 24.8945 43.9056 24.9768 43.927 25.049ZM36.2113 30.2409C36.9324 29.7948 38.7731 28.6562 39.927 29.401C41.059 30.343 40.812 31.881 40.059 32.981C39.698 33.506 39.242 33.945 38.765 34.364L38.7338 34.3902C38.3836 34.6836 38.1251 34.9001 38.059 35.379L35.799 33.732C35.9116 33.4365 36.1371 33.5631 36.3597 33.688C36.4415 33.7339 36.5228 33.7796 36.598 33.804C36.989 33.933 37.414 33.969 37.814 33.863C38.498 33.681 39.191 33.04 39.374 32.344C39.602 31.479 38.753 31.217 38.107 31.52C37.796 31.6659 37.4992 31.8614 37.2066 32.0541C37.0899 32.131 36.974 32.2073 36.858 32.28C36.205 32.687 35.437 32.995 34.7 32.611C34.052 32.275 33.611 31.621 33.611 30.885C33.611 30.088 34.064 29.39 34.598 28.835C34.7222 28.7064 34.8723 28.5799 35.0268 28.4497C35.4297 28.1102 35.8629 27.7451 35.946 27.25C36.501 27.626 37.056 28.001 37.613 28.376C37.7051 28.4389 37.6888 28.46 37.6383 28.5256L37.6383 28.5257C37.623 28.5456 37.6045 28.5695 37.585 28.6C37.5378 28.6738 37.2147 28.6375 36.9506 28.6079L36.9505 28.6079C36.8174 28.5929 36.6993 28.5796 36.639 28.583C36.043 28.619 35.443 28.88 35.139 29.42C34.789 30.042 35.276 30.714 35.951 30.395C36.0004 30.3714 36.09 30.316 36.2113 30.2409ZM57.544 1.336C57.5089 1.35195 57.4786 1.37677 57.456 1.408L56.666 2.358L55.852 3.34C55.824 3.37406 55.7956 3.405 55.7692 3.4337L55.7691 3.43377C55.6376 3.57695 55.5572 3.66457 55.827 3.807C56.37 3.535 59.345 8.575 59.079 9.299C58.609 9.543 54.589 6.016 54.481 5.783C54.4717 5.75605 54.4819 5.69111 54.4943 5.61303C54.5255 5.41588 54.5699 5.1349 54.345 5.17C54.2346 5.18704 54.0221 5.49883 53.8812 5.70563L53.8812 5.70571L53.8811 5.70575L53.881 5.70601C53.8318 5.77817 53.7913 5.83751 53.767 5.867L53.19 6.562C53.3209 6.75283 53.4165 6.70767 53.5354 6.65154C53.6127 6.61501 53.6999 6.57384 53.813 6.59C54.0411 6.63581 54.8569 7.32294 55.1904 7.6039L55.1905 7.60393L55.1905 7.604L55.1906 7.60402L55.269 7.67C55.1125 7.67566 54.8669 7.68709 54.6029 7.69938C54.0743 7.72398 53.4721 7.752 53.364 7.744C53.0282 7.78584 52.987 7.63816 52.9405 7.47169C52.9059 7.3477 52.8684 7.21328 52.704 7.139L51.226 8.934L50.366 9.977C50.3619 9.98197 50.3583 9.98605 50.3553 9.98946C50.3476 9.99818 50.3438 10.0025 50.3443 10.0063C50.3447 10.0101 50.3494 10.0134 50.3588 10.0198C50.3675 10.0258 50.3801 10.0346 50.397 10.049C50.4271 10.0737 50.45 10.0937 50.4682 10.1094C50.5079 10.1439 50.5242 10.1581 50.5406 10.1581C50.5521 10.158 50.5636 10.151 50.5831 10.1389C50.6139 10.1199 50.6647 10.0886 50.767 10.053C51.095 9.938 55.023 13.253 55.165 13.422C55.2768 13.5552 55.2658 13.6986 55.2557 13.8303C55.2436 13.9874 55.2329 14.128 55.433 14.215L56.601 12.797C56.6136 12.7817 56.6249 12.7699 56.6342 12.7602C56.6687 12.7244 56.6754 12.7174 56.614 12.667C56.4611 12.5411 56.3828 12.5963 56.286 12.6646C56.2075 12.72 56.1167 12.784 55.964 12.767C55.6647 12.7177 53.7465 11.1176 52.6045 10.165L52.6033 10.164L52.599 10.1604L52.5975 10.1592L52.5914 10.1541C52.4186 10.01 52.264 9.88105 52.136 9.775L57.458 9.578C57.653 9.571 58.198 10.159 58.153 10.368C58.1371 10.4427 58.1027 10.5055 58.0723 10.5611C58.0033 10.6871 57.9545 10.7761 58.187 10.883C58.3104 10.7346 58.4366 10.5866 58.563 10.4383L58.563 10.4382L58.5631 10.4382L58.5632 10.4381L58.5633 10.438L58.5633 10.4379C58.7555 10.2125 58.9481 9.98653 59.132 9.758L59.28 9.574C59.3377 9.52787 59.3839 9.46899 59.415 9.402L59.525 9.265C59.5515 9.23474 59.5838 9.1982 59.6203 9.1568L59.6227 9.15406L59.6229 9.1539C59.9666 8.76462 60.6835 7.95283 60.587 7.869C60.4471 7.74771 60.3406 7.80531 60.2265 7.86707C60.096 7.9377 59.9553 8.01379 59.743 7.834C59.5375 7.68671 59.0502 6.84839 58.8567 6.51546L58.808 6.432C58.6546 6.17147 59.0886 5.91174 59.348 5.75651C59.3793 5.73775 59.4081 5.72052 59.433 5.705C59.937 5.392 61.54 4.938 61.693 5.932C61.7038 6.00401 61.6724 6.0803 61.6429 6.15181C61.604 6.24613 61.5686 6.33212 61.638 6.389C61.6433 6.39354 61.6514 6.40196 61.6613 6.41227C61.7035 6.45642 61.7792 6.53535 61.814 6.494L63.956 3.918C63.9359 3.90105 63.9148 3.87992 63.893 3.85805C63.8467 3.81153 63.797 3.76173 63.746 3.742C63.272 4.215 58.28 2.222 57.916 1.947C57.8397 1.91667 57.793 1.77206 57.7473 1.63065C57.6936 1.46437 57.6413 1.3025 57.544 1.336ZM59.606 4.849C58.845 4.527 58.083 4.207 57.319 3.889L58.335 5.637C58.5237 5.45026 58.7319 5.28431 58.956 5.142H58.958C59.159 5.015 59.376 4.913 59.606 4.849ZM50.731 11.642C49.624 11.566 48.501 12.052 47.708 12.959C46.473 14.459 46.596 16.637 48.101 17.904C49.619 19.154 51.781 18.836 53.017 17.354C54.249 15.858 54.164 13.674 52.632 12.42C52.0974 11.9654 51.4319 11.6928 50.732 11.642H50.731ZM51.024 13.904C50.592 13.615 49.904 13.239 49.282 13.201C48.909 13.178 48.559 13.278 48.302 13.592C47.487 14.588 48.764 15.718 49.509 16.256C50.253 16.793 51.633 17.57 52.433 16.73C52.4395 16.7245 52.4455 16.7185 52.451 16.712C52.584 16.545 52.549 16.584 52.501 16.642C53.238 15.591 51.804 14.425 51.024 13.904ZM46.155 17.481C44.941 17.414 43.752 17.977 42.856 19.057C42.3323 19.6859 41.81 20.3161 41.2879 20.9461L40.934 21.373C41.0575 21.5528 41.1923 21.515 41.3428 21.4729C41.4702 21.4372 41.6088 21.3984 41.761 21.486C42.044 21.649 45.814 24.798 45.876 24.971C45.9225 25.1012 45.8965 25.1856 45.8745 25.2573C45.8463 25.3491 45.8245 25.4199 45.97 25.539C46.081 25.632 48.914 22.134 49.173 21.519C49.621 20.38 49.264 19.132 48.353 18.344C48.426 18.404 48.53 18.489 48.311 18.307C47.621 17.789 46.884 17.52 46.155 17.48V17.481ZM45.368 19.098C45.286 19.077 45.197 19.064 45.102 19.061V19.06C44.441 19.035 43.52 19.418 43.045 19.939C42.886 20.114 46.867 23.338 47.065 23.148C47.2477 22.9726 47.3215 22.9091 47.3621 22.8742C47.411 22.8321 47.4117 22.8315 47.497 22.726C48.752 21.213 46.79 19.461 45.368 19.098Z" fill="white"/>
</svg>
